<svg id="SvgjsSvg1000" xmlns="http://www.w3.org/2000/svg" version="1.1" xmlns:xlink="http://www.w3.org/1999/xlink" xmlns:svgjs="http://svgjs.com/svgjs" width="163" height="21" viewBox="0 0 163 21"><title>Shape 3</title><desc>Created with Avocode.</desc><defs id="SvgjsDefs1001"></defs><path id="SvgjsPath1007" d="M292.144 31.0324C287.255 31.0324 283.025 34.6366 283.025 40.3628C283.025 46.217 287.104 50.0001 292.144 50.0001C297.412 50.0001 301.261 46.139900000000004 301.261 40.36280000000001C301.261 34.53470000000001 297.007 31.03240000000001 292.144 31.03240000000001ZM384.387 31.0324C379.498 31.0324 375.269 34.6366 375.269 40.3628C375.269 46.217 379.347 50.0001 384.387 50.0001C389.655 50.0001 393.505 46.139900000000004 393.505 40.36280000000001C393.505 34.53470000000001 389.25 31.03240000000001 384.387 31.03240000000001ZM364.089 31.0324C359.2 31.0324 354.97 34.6366 354.97 40.3628C354.97 46.217 359.04900000000004 50.0001 364.08900000000006 50.0001C369.357 50.0001 373.2060000000001 46.139900000000004 373.2060000000001 40.36280000000001C373.2060000000001 34.53470000000001 368.95200000000006 31.03240000000001 364.08900000000006 31.03240000000001ZM317.99 31.6205L302.894 31.6205C302.793 31.6205 302.742 31.6975 302.716 31.8506L302.387 34.0487C302.363 34.1765 302.438 34.2538 302.565 34.2538C303.73 34.2538 304.617 34.2026 305.782 34.2026C306.79499999999996 34.2026 307.78299999999996 34.1765 308.796 34.099599999999995C308.74399999999997 34.994499999999995 308.71999999999997 35.966699999999996 308.71999999999997 36.911699999999996L308.71999999999997 49.438199999999995C308.71999999999997 49.540099999999995 308.82099999999997 49.668099999999995 308.948 49.668099999999995L311.70799999999997 49.668099999999995C311.80899999999997 49.668099999999995 311.936 49.540099999999995 311.936 49.438199999999995L311.936 36.96289999999999C311.936 36.01759999999999 311.911 35.045399999999994 311.861 34.09959999999999C312.974 34.17649999999999 314.063 34.20259999999999 315.178 34.20259999999999C316.065 34.20259999999999 317.129 34.25379999999999 317.99 34.25379999999999C318.116 34.25379999999999 318.16700000000003 34.17649999999999 318.16700000000003 34.07459999999999L318.16700000000003 31.82449999999999C318.16700000000003 31.69749999999999 318.11600000000004 31.62049999999999 317.99 31.62049999999999ZM274.328 38.7528L270.503 38.7528C269.591 38.7528 268.72999999999996 38.7776 267.945 38.8286C267.995 37.8068 268.021 36.7076 268.021 35.6335L268.021 31.876499999999997C268.021 31.748799999999996 267.894 31.620499999999996 267.793 31.620499999999996L265.007 31.620499999999996C264.88 31.620499999999996 264.779 31.748799999999996 264.779 31.876499999999997L264.779 49.438199999999995C264.779 49.540099999999995 264.88 49.668099999999995 265.007 49.668099999999995L267.793 49.668099999999995C267.894 49.668099999999995 268.021 49.540099999999995 268.021 49.438199999999995L268.021 44.964999999999996C268.021 43.762899999999995 267.995 42.535999999999994 267.945 41.3859C268.95799999999997 41.4368 269.591 41.4368 270.452 41.4368L274.378 41.4368C275.239 41.4368 275.848 41.4368 276.86 41.3859C276.81 42.536 276.81 43.7629 276.81 44.964999999999996L276.81 49.438199999999995C276.81 49.540099999999995 276.911 49.668099999999995 277.038 49.668099999999995L279.79900000000004 49.668099999999995C279.90000000000003 49.668099999999995 280.02700000000004 49.540099999999995 280.02700000000004 49.438199999999995L280.02700000000004 31.876499999999997C280.02700000000004 31.748799999999996 279.90000000000003 31.620499999999996 279.79900000000004 31.620499999999996L277.038 31.620499999999996C276.911 31.620499999999996 276.81 31.748799999999996 276.81 31.876499999999997L276.81 35.6335C276.81 36.7076 276.81 37.806799999999996 276.86 38.828599999999994C276.075 38.77759999999999 275.23900000000003 38.75279999999999 274.32800000000003 38.75279999999999ZM347.134 49.6681C350.909 49.6681 353.112 47.8269 353.112 44.8879C353.112 42.1007 350.757 40.159 348.148 39.953900000000004C350.17400000000004 39.49380000000001 352.023 38.0628 352.023 35.8896C352.023 33.8697 350.706 31.6205 346.096 31.6205L339.967 31.6205C339.84 31.6205 339.739 31.7488 339.739 31.8765L339.739 49.438199999999995C339.739 49.540099999999995 339.84 49.668099999999995 339.967 49.668099999999995ZM255.602 43.0729C259.984 43.0729 262.365 40.848699999999994 262.365 37.3467C262.365 34.2538 260.28700000000003 31.6205 255.881 31.6205L250.232 31.6205C250.131 31.6205 250.005 31.7736 250.005 31.9525L250.005 49.4382C250.005 49.5401 250.106 49.6681 250.232 49.6681L253.019 49.6681C253.12 49.6681 253.246 49.5401 253.246 49.4382L253.246 46.345C253.246 45.1429 253.221 43.8909 253.145 42.995799999999996C253.779 43.047 254.614 43.0729 255.602 43.0729ZM384.387 47.3671C380.79 47.3671 378.84 44.5551 378.84 40.3628C378.84 35.7877 381.11999999999995 33.6657 384.412 33.6657C387.654 33.6657 389.93399999999997 35.8128 389.93399999999997 40.3628C389.93399999999997 44.5809 388.10999999999996 47.3671 384.38699999999994 47.3671ZM364.089 47.3671C360.492 47.3671 358.541 44.5551 358.541 40.3628C358.541 35.7877 360.82099999999997 33.6657 364.114 33.6657C367.356 33.6657 369.635 35.8128 369.635 40.3628C369.635 44.5809 367.811 47.3671 364.089 47.3671ZM292.144 47.3671C288.547 47.3671 286.596 44.5551 286.596 40.3628C286.596 35.7877 288.876 33.6657 292.169 33.6657C295.411 33.6657 297.69 35.8128 297.69 40.3628C297.69 44.5809 295.866 47.3671 292.144 47.3671ZM332.427 42.184C332.35400000000004 42.055499999999995 332.17 42.055499999999995 332.096 42.183699999999995L327.883 49.54599999999999C327.81 49.67399999999999 327.90099999999995 49.83489999999999 328.04699999999997 49.83509999999999L328.05999999999995 49.83509999999999C330.77099999999996 49.83509999999999 333.21099999999996 48.66869999999999 334.91599999999994 46.80639999999999C334.97299999999996 46.74429999999999 334.98299999999995 46.65199999999999 334.9409999999999 46.57909999999999ZM328.06 30.9982C325.351 30.9982 322.911 32.1644 321.206 34.0262C321.149 34.088 321.139 34.1801 321.18100000000004 34.2535L323.694 38.647800000000004C323.76800000000003 38.7764 323.952 38.7764 324.02500000000003 38.647800000000004L328.228 31.287100000000002C328.301 31.1593 328.21000000000004 30.9982 328.064 30.9982ZM324.364 43.3558C324.51099999999997 43.3558 324.60299999999995 43.1952 324.529 43.066700000000004L320.313 35.6987C320.239 35.5702 320.056 35.5707 319.98199999999997 35.699200000000005C319.18499999999995 37.08650000000001 318.729 38.697700000000005 318.729 40.4166C318.729 41.392900000000004 318.876 42.3348 319.149 43.2203C319.174 43.3007 319.248 43.3558 319.332 43.3558ZM331.761 37.484C331.61400000000003 37.484 331.52200000000005 37.644600000000004 331.595 37.7732L335.809 45.133300000000006C335.882 45.261900000000004 336.06600000000003 45.26140000000001 336.14000000000004 45.1328C336.93600000000004 43.746100000000006 337.39200000000005 42.1351 337.39200000000005 40.4166C337.39200000000005 39.442800000000005 337.24600000000004 38.5035 336.97400000000005 37.619800000000005C336.94900000000007 37.539100000000005 336.87500000000006 37.484 336.79100000000005 37.484ZM330.112 31.2268C330.031 31.2082 329.946 31.2452 329.904 31.3184L327.389 35.7161C327.315 35.8446 327.407 36.005199999999995 327.55400000000003 36.005199999999995L335.982 36.003099999999996C336.129 36.003099999999996 336.221 35.842999999999996 336.148 35.7148C334.86400000000003 33.4704 332.69 31.810599999999997 330.112 31.226799999999997ZM346.552 47.2652C345.362 47.2652 344.019 47.2911 342.88 47.342C342.956 46.3189 342.981 45.3219 342.981 44.2998C342.981 43.225699999999996 342.956 42.2039 342.88 41.2579C343.741 41.3088 344.83 41.3347 345.767 41.3347C348.63 41.3347 349.794 42.5618 349.794 44.4278C349.794 46.3189 348.781 47.2652 346.55199999999996 47.2652ZM320.142 44.8364C319.996 44.8367 319.903 44.9968 319.977 45.1248C321.25899999999996 47.3635 323.428 49.0194 325.99899999999997 49.6044C326.08099999999996 49.6228 326.16499999999996 49.586099999999995 326.207 49.5126L328.722 45.117599999999996C328.79499999999996 44.989 328.703 44.828199999999995 328.556 44.828399999999995ZM255.273 40.7207C254.64 40.7207 253.829 40.7207 253.17 40.7719C253.22099999999998 39.8778 253.24599999999998 38.3688 253.24599999999998 37.269600000000004C253.24599999999998 36.323800000000006 253.22099999999998 34.7907 253.17 33.9465C253.956 33.9975 254.791 34.0239 255.628 34.0239C258.03299999999996 34.0239 258.996 35.4298 258.996 37.3718C258.996 39.6986 257.72999999999996 40.7207 255.27299999999997 40.7207ZM345.083 39.1617C344.324 39.1617 343.564 39.186800000000005 342.88000000000005 39.263600000000004C342.9560000000001 38.420700000000004 342.98100000000005 37.448800000000006 342.98100000000005 36.5799C342.98100000000005 35.7109 342.9560000000001 34.8416 342.88000000000005 33.920700000000004C343.6650000000001 33.9727 344.70300000000003 33.9975 345.4630000000001 33.9975C347.74300000000005 33.9975 348.7050000000001 34.8416 348.7050000000001 36.5537C348.7050000000001 38.1138 347.6670000000001 39.161699999999996 345.0830000000001 39.161699999999996ZM399.62 44.5551C399.62 43.354000000000006 399.594 42.075900000000004 399.51800000000003 41.1557L400.02500000000003 41.1557C400.58200000000005 41.1557 401.975 42.561800000000005 403.74800000000005 44.786C405.01400000000007 46.3698 406.50900000000007 48.1091 407.85100000000006 49.463C407.97800000000007 49.5659 408.15600000000006 49.6681 408.3070000000001 49.6681L411.7770000000001 49.6681C411.9040000000001 49.6681 412.0050000000001 49.5401 412.0050000000001 49.2592C412.0050000000001 49.08 411.9540000000001 48.9522 411.8030000000001 48.8762C411.0430000000001 48.4409 408.5860000000001 45.884899999999995 406.5090000000001 43.532999999999994C404.78700000000015 41.616099999999996 403.34300000000013 40.030699999999996 402.8360000000001 39.8259C403.3940000000001 39.4938 404.6340000000001 38.2157 405.9520000000001 36.809799999999996C408.1800000000001 34.3306 409.9020000000001 32.540699999999994 410.5610000000001 32.1827C410.6370000000001 32.1318 410.6880000000001 32.029599999999995 410.6880000000001 31.9016C410.6880000000001 31.7488 410.6120000000001 31.6205 410.4850000000001 31.6205L407.2430000000001 31.6205C407.0910000000001 31.6205 406.9650000000001 31.6975 406.83800000000014 31.8245C405.69800000000015 33.0266 404.48200000000014 34.5085 403.47000000000014 35.7109C401.72200000000015 37.8329 400.45600000000013 39.1358 400.02500000000015 39.1358L399.5430000000001 39.1358C399.5940000000001 38.26690000000001 399.6200000000001 37.1677 399.6200000000001 36.0936L399.6200000000001 31.8765C399.6200000000001 31.7488 399.4930000000001 31.6205 399.3920000000001 31.6205L396.60500000000013 31.6205C396.47900000000016 31.6205 396.37800000000016 31.7488 396.37800000000016 31.8765L396.37800000000016 49.438199999999995C396.37800000000016 49.540099999999995 396.47900000000016 49.668099999999995 396.60500000000013 49.668099999999995L399.3920000000001 49.668099999999995C399.4930000000001 49.668099999999995 399.6200000000001 49.540099999999995 399.6200000000001 49.438199999999995Z " fill="#000000" fill-opacity="1" transform="matrix(1,0,0,1,-250,-30)"></path></svg>